<svg width="32" height="27" viewBox="0 0 32 27" fill="none" xmlns="http://www.w3.org/2000/svg">
<path d="M15.7025 26.67H30.5192C31.1089 26.67 31.6423 26.3203 31.8764 25.781C32.112 25.2402 32.0053 24.612 31.6038 24.1808L28.187 20.5003C29.7176 18.3608 30.5192 15.9057 30.5192 13.335C30.5192 5.98149 23.8724 0 15.7025 0C7.53259 0 0.885839 5.98149 0.885839 13.335C0.885839 20.6885 7.53259 26.67 15.7025 26.67ZM27.1217 23.7067H15.7025C9.16687 23.7067 3.84917 19.0542 3.84917 13.335C3.84917 7.61725 9.16687 2.96333 15.7025 2.96333C22.2381 2.96333 27.5558 7.61725 27.5558 13.335C27.5558 15.6123 26.7143 17.78 25.1229 19.6054C24.6251 20.1773 24.6384 21.0323 25.1541 21.5879L27.1217 23.7067Z" fill="#757575"/>
</svg>
