<svg width="30" height="27" viewBox="0 0 30 27" fill="none" xmlns="http://www.w3.org/2000/svg">
<path d="M15 26.6667C14.6933 26.6667 14.3883 26.5817 14.1183 26.4133C13.54 26.0533 0 17.485 0 8.33333C0 3.73833 3.73833 0 8.33333 0C10.99 0 13.45 1.395 15 3.46667C16.55 1.395 19.01 0 21.6667 0C26.2617 0 30 3.73833 30 8.33333C30 17.485 16.46 26.0533 15.8817 26.4133C15.6117 26.5817 15.3067 26.6667 15 26.6667ZM8.33333 3.33333C5.57667 3.33333 3.33333 5.57667 3.33333 8.33333C3.33333 13.9383 11.0717 20.345 15 23.01C18.9283 20.345 26.6667 13.94 26.6667 8.33333C26.6667 5.57667 24.4233 3.33333 21.6667 3.33333C18.8517 3.33333 16.6667 6.02 16.6667 8.33333C16.6667 9.25333 15.9217 10 15 10C14.0783 10 13.3333 9.25333 13.3333 8.33333C13.3333 6.02 11.1483 3.33333 8.33333 3.33333Z" fill="#757575"/>
</svg>
