<svg width="10" height="21" viewBox="0 0 10 21" fill="none" xmlns="http://www.w3.org/2000/svg">
<path d="M0 18.9994C0.000292085 18.6653 0.13233 18.345 0.367084 18.109L6.76769 11.6641C6.96142 11.4691 7.1151 11.2375 7.21995 10.9827C7.3248 10.7279 7.37877 10.4547 7.37877 10.1789C7.37877 9.90305 7.3248 9.62991 7.21995 9.37508C7.1151 9.12024 6.96142 8.8887 6.76769 8.69368L0.375426 2.25302C0.14747 2.01536 0.0213336 1.69707 0.0241848 1.36668C0.0270361 1.03629 0.158647 0.720249 0.390671 0.486621C0.622694 0.252993 0.936566 0.120472 1.26469 0.117601C1.5928 0.11473 1.90892 0.241739 2.14494 0.471272L8.5372 6.90689C9.3967 7.77404 9.87942 8.94913 9.87942 10.1743C9.87942 11.3994 9.3967 12.5745 8.5372 13.4416L2.13659 19.8865C1.96183 20.0626 1.73918 20.1826 1.49674 20.2314C1.2543 20.2802 1.00294 20.2556 0.77437 20.1607C0.545802 20.0658 0.350273 19.9049 0.212457 19.6982C0.0746397 19.4915 0.000711055 19.2484 0 18.9994Z" fill="#005D28" fill-opacity="0.4"/>
</svg>
