<svg width="10" height="21" viewBox="0 0 10 21" fill="none" xmlns="http://www.w3.org/2000/svg">
<path d="M9.87942 1.3782C9.87913 1.71228 9.74709 2.03257 9.51234 2.26865L3.11174 8.71352C2.918 8.90854 2.76432 9.14008 2.65947 9.39491C2.55462 9.64975 2.50065 9.92289 2.50065 10.1987C2.50065 10.4746 2.55462 10.7477 2.65947 11.0025C2.76432 11.2574 2.918 11.4889 3.11174 11.6839L9.50399 18.1204C9.73195 18.358 9.85809 18.6763 9.85524 19.0067C9.85239 19.3371 9.72077 19.6532 9.48875 19.8868C9.25673 20.1204 8.94285 20.2529 8.61474 20.2558C8.28662 20.2587 7.97051 20.1317 7.73449 19.9021L1.34223 13.4707C0.482723 12.6036 0 11.4285 0 10.2033C0 8.97821 0.482723 7.80312 1.34223 6.93597L7.74283 0.486907C7.91785 0.310568 8.14088 0.190465 8.3837 0.141798C8.62653 0.09313 8.87824 0.118085 9.10697 0.213504C9.33571 0.308923 9.5312 0.470518 9.6687 0.677841C9.8062 0.885165 9.87953 1.1289 9.87942 1.3782Z" fill="#005D28" fill-opacity="0.4"/>
</svg>
